<svg viewBox="0 0 330 200" xmlns="http://www.w3.org/2000/svg"><g><g><g><g><g><line x1="70" y1="178" x2="65" y2="178" style="visibility: inherit;" fill="rgb(0, 0, 0)" stroke="rgb(204, 204, 204)" stroke-width="1px"></line><line x1="70" y1="165.28571428571428" x2="65" y2="165.28571428571428" style="visibility: inherit;" fill="rgb(0, 0, 0)" stroke="rgb(204, 204, 204)" stroke-width="1px"></line><line x1="70" y1="152.57142857142858" x2="65" y2="152.57142857142858" style="visibility: inherit;" fill="rgb(0, 0, 0)" stroke="rgb(204, 204, 204)" stroke-width="1px"></line><line x1="70" y1="139.85714285714286" x2="65" y2="139.85714285714286" style="visibility: inherit;" fill="rgb(0, 0, 0)" stroke="rgb(204, 204, 204)" stroke-width="1px"></line><line x1="70" y1="127.14285714285714" x2="65" y2="127.14285714285714" style="visibility: inherit;" fill="rgb(0, 0, 0)" stroke="rgb(204, 204, 204)" stroke-width="1px"></line><line x1="70" y1="114.42857142857142" x2="65" y2="114.42857142857142" style="visibility: inherit;" fill="rgb(0, 0, 0)" stroke="rgb(204, 204, 204)" stroke-width="1px"></line><line x1="70" y1="101.71428571428571" x2="65" y2="101.71428571428571" style="visibility: inherit;" fill="rgb(0, 0, 0)" stroke="rgb(204, 204, 204)" stroke-width="1px"></line><line x1="70" y1="89" x2="65" y2="89" style="visibility: inherit;" fill="rgb(0, 0, 0)" stroke="rgb(204, 204, 204)" stroke-width="1px"></line><line x1="70" y1="76.28571428571429" x2="65" y2="76.28571428571429" style="visibility: inherit;" fill="rgb(0, 0, 0)" stroke="rgb(204, 204, 204)" stroke-width="1px"></line><line x1="70" y1="63.57142857142856" x2="65" y2="63.57142857142856" style="visibility: inherit;" fill="rgb(0, 0, 0)" stroke="rgb(204, 204, 204)" stroke-width="1px"></line><line x1="70" y1="50.857142857142854" x2="65" y2="50.857142857142854" style="visibility: inherit;" fill="rgb(0, 0, 0)" stroke="rgb(204, 204, 204)" stroke-width="1px"></line><line x1="70" y1="38.142857142857146" x2="65" y2="38.142857142857146" style="visibility: inherit;" fill="rgb(0, 0, 0)" stroke="rgb(204, 204, 204)" stroke-width="1px"></line><line x1="70" y1="25.428571428571438" x2="65" y2="25.428571428571438" style="visibility: inherit;" fill="rgb(0, 0, 0)" stroke="rgb(204, 204, 204)" stroke-width="1px"></line><line x1="70" y1="12.714285714285708" x2="65" y2="12.714285714285708" style="visibility: inherit;" fill="rgb(0, 0, 0)" stroke="rgb(204, 204, 204)" stroke-width="1px"></line><line x1="70" y1="0" x2="65" y2="0" style="visibility: inherit;" fill="rgb(0, 0, 0)" stroke="rgb(204, 204, 204)" stroke-width="1px"></line></g><g transform="translate(60, 0)"><text x="0" y="178" dx="0em" dy="0.3em" style="text-anchor: end; visibility: hidden; font-family: Roboto, sans-serif; font-size: 12px; font-weight: 200;" fill="rgb(50, 49, 63)" stroke="none" stroke-width="1px">-300</text><text x="0" y="165.28571428571428" dx="0em" dy="0.3em" style="text-anchor: end; visibility: inherit; font-family: Roboto, sans-serif; font-size: 12px; font-weight: 200;" fill="rgb(50, 49, 63)" stroke="none" stroke-width="1px">-200</text><text x="0" y="152.57142857142858" dx="0em" dy="0.3em" style="text-anchor: end; visibility: hidden; font-family: Roboto, sans-serif; font-size: 12px; font-weight: 200;" fill="rgb(50, 49, 63)" stroke="none" stroke-width="1px">-100</text><text x="0" y="139.85714285714286" dx="0em" dy="0.3em" style="text-anchor: end; visibility: inherit; font-family: Roboto, sans-serif; font-size: 12px; font-weight: 200;" fill="rgb(50, 49, 63)" stroke="none" stroke-width="1px">0</text><text x="0" y="127.14285714285714" dx="0em" dy="0.3em" style="text-anchor: end; visibility: hidden; font-family: Roboto, sans-serif; font-size: 12px; font-weight: 200;" fill="rgb(50, 49, 63)" stroke="none" stroke-width="1px">100</text><text x="0" y="114.42857142857142" dx="0em" dy="0.3em" style="text-anchor: end; visibility: inherit; font-family: Roboto, sans-serif; font-size: 12px; font-weight: 200;" fill="rgb(50, 49, 63)" stroke="none" stroke-width="1px">200</text><text x="0" y="101.71428571428571" dx="0em" dy="0.3em" style="text-anchor: end; visibility: hidden; font-family: Roboto, sans-serif; font-size: 12px; font-weight: 200;" fill="rgb(50, 49, 63)" stroke="none" stroke-width="1px">300</text><text x="0" y="89" dx="0em" dy="0.3em" style="text-anchor: end; visibility: inherit; font-family: Roboto, sans-serif; font-size: 12px; font-weight: 200;" fill="rgb(50, 49, 63)" stroke="none" stroke-width="1px">400</text><text x="0" y="76.28571428571429" dx="0em" dy="0.3em" style="text-anchor: end; visibility: hidden; font-family: Roboto, sans-serif; font-size: 12px; font-weight: 200;" fill="rgb(50, 49, 63)" stroke="none" stroke-width="1px">500</text><text x="0" y="63.57142857142856" dx="0em" dy="0.3em" style="text-anchor: end; visibility: inherit; font-family: Roboto, sans-serif; font-size: 12px; font-weight: 200;" fill="rgb(50, 49, 63)" stroke="none" stroke-width="1px">600</text><text x="0" y="50.857142857142854" dx="0em" dy="0.3em" style="text-anchor: end; visibility: hidden; font-family: Roboto, sans-serif; font-size: 12px; font-weight: 200;" fill="rgb(50, 49, 63)" stroke="none" stroke-width="1px">700</text><text x="0" y="38.142857142857146" dx="0em" dy="0.3em" style="text-anchor: end; visibility: inherit; font-family: Roboto, sans-serif; font-size: 12px; font-weight: 200;" fill="rgb(50, 49, 63)" stroke="none" stroke-width="1px">800</text><text x="0" y="25.428571428571438" dx="0em" dy="0.3em" style="text-anchor: end; visibility: hidden; font-family: Roboto, sans-serif; font-size: 12px; font-weight: 200;" fill="rgb(50, 49, 63)" stroke="none" stroke-width="1px">900</text><text x="0" y="12.714285714285708" dx="0em" dy="0.3em" style="text-anchor: end; visibility: inherit; font-family: Roboto, sans-serif; font-size: 12px; font-weight: 200;" fill="rgb(50, 49, 63)" stroke="none" stroke-width="1px">1e+3</text><text x="0" y="0" dx="0em" dy="0.3em" style="text-anchor: end; visibility: hidden; font-family: Roboto, sans-serif; font-size: 12px; font-weight: 200;" fill="rgb(50, 49, 63)" stroke="none" stroke-width="1px">1.1e+3</text></g><line x1="70" y1="0" x2="70" y2="178" fill="rgb(0, 0, 0)" stroke="rgb(204, 204, 204)" stroke-width="1px"></line></g></g><g transform="translate(70, 0)" clip-path="url(#clip_0)"><clipPath id="clip_0"><rect width="260" height="178"></rect></clipPath><g><g><g><line x1="0" y1="0" x2="0" y2="178" fill="rgb(0, 0, 0)" stroke="rgb(60, 60, 60)" stroke-width="1px" opacity="0.25"></line><line x1="21.666666666666664" y1="0" x2="21.666666666666664" y2="178" fill="rgb(0, 0, 0)" stroke="rgb(60, 60, 60)" stroke-width="1px" opacity="0.25"></line><line x1="43.33333333333333" y1="0" x2="43.33333333333333" y2="178" fill="rgb(0, 0, 0)" stroke="rgb(60, 60, 60)" stroke-width="1px" opacity="0.25"></line><line x1="65" y1="0" x2="65" y2="178" fill="rgb(0, 0, 0)" stroke="rgb(60, 60, 60)" stroke-width="1px" opacity="0.25"></line><line x1="86.66666666666666" y1="0" x2="86.66666666666666" y2="178" fill="rgb(0, 0, 0)" stroke="rgb(60, 60, 60)" stroke-width="1px" opacity="0.25"></line><line x1="108.33333333333334" y1="0" x2="108.33333333333334" y2="178" fill="rgb(0, 0, 0)" stroke="rgb(60, 60, 60)" stroke-width="1px" opacity="0.25"></line><line x1="130" y1="0" x2="130" y2="178" fill="rgb(0, 0, 0)" stroke="rgb(60, 60, 60)" stroke-width="1px" opacity="0.25"></line><line x1="151.66666666666669" y1="0" x2="151.66666666666669" y2="178" fill="rgb(0, 0, 0)" stroke="rgb(60, 60, 60)" stroke-width="1px" opacity="0.25"></line><line x1="173.33333333333331" y1="0" x2="173.33333333333331" y2="178" fill="rgb(0, 0, 0)" stroke="rgb(60, 60, 60)" stroke-width="1px" opacity="0.25"></line><line x1="195" y1="0" x2="195" y2="178" fill="rgb(0, 0, 0)" stroke="rgb(60, 60, 60)" stroke-width="1px" opacity="0.25"></line><line x1="216.66666666666669" y1="0" x2="216.66666666666669" y2="178" fill="rgb(0, 0, 0)" stroke="rgb(60, 60, 60)" stroke-width="1px" opacity="0.25"></line><line x1="238.33333333333331" y1="0" x2="238.33333333333331" y2="178" fill="rgb(0, 0, 0)" stroke="rgb(60, 60, 60)" stroke-width="1px" opacity="0.25"></line><line x1="260" y1="0" x2="260" y2="178" fill="rgb(0, 0, 0)" stroke="rgb(60, 60, 60)" stroke-width="1px" opacity="0.25"></line></g><g><line x1="0" y1="178" x2="260" y2="178" fill="rgb(0, 0, 0)" stroke="rgb(60, 60, 60)" stroke-width="1px" opacity="0.25"></line><line x1="0" y1="165.28571428571428" x2="260" y2="165.28571428571428" fill="rgb(0, 0, 0)" stroke="rgb(60, 60, 60)" stroke-width="1px" opacity="0.25"></line><line x1="0" y1="152.57142857142858" x2="260" y2="152.57142857142858" fill="rgb(0, 0, 0)" stroke="rgb(60, 60, 60)" stroke-width="1px" opacity="0.25"></line><line x1="0" y1="139.85714285714286" x2="260" y2="139.85714285714286" fill="rgb(0, 0, 0)" stroke="rgb(60, 60, 60)" stroke-width="1px" opacity="0.25"></line><line x1="0" y1="127.14285714285714" x2="260" y2="127.14285714285714" fill="rgb(0, 0, 0)" stroke="rgb(60, 60, 60)" stroke-width="1px" opacity="0.25"></line><line x1="0" y1="114.42857142857142" x2="260" y2="114.42857142857142" fill="rgb(0, 0, 0)" stroke="rgb(60, 60, 60)" stroke-width="1px" opacity="0.25"></line><line x1="0" y1="101.71428571428571" x2="260" y2="101.71428571428571" fill="rgb(0, 0, 0)" stroke="rgb(60, 60, 60)" stroke-width="1px" opacity="0.25"></line><line x1="0" y1="89" x2="260" y2="89" fill="rgb(0, 0, 0)" stroke="rgb(60, 60, 60)" stroke-width="1px" opacity="0.25"></line><line x1="0" y1="76.28571428571429" x2="260" y2="76.28571428571429" fill="rgb(0, 0, 0)" stroke="rgb(60, 60, 60)" stroke-width="1px" opacity="0.25"></line><line x1="0" y1="63.57142857142856" x2="260" y2="63.57142857142856" fill="rgb(0, 0, 0)" stroke="rgb(60, 60, 60)" stroke-width="1px" opacity="0.25"></line><line x1="0" y1="50.857142857142854" x2="260" y2="50.857142857142854" fill="rgb(0, 0, 0)" stroke="rgb(60, 60, 60)" stroke-width="1px" opacity="0.25"></line><line x1="0" y1="38.142857142857146" x2="260" y2="38.142857142857146" fill="rgb(0, 0, 0)" stroke="rgb(60, 60, 60)" stroke-width="1px" opacity="0.25"></line><line x1="0" y1="25.428571428571438" x2="260" y2="25.428571428571438" fill="rgb(0, 0, 0)" stroke="rgb(60, 60, 60)" stroke-width="1px" opacity="0.25"></line><line x1="0" y1="12.714285714285708" x2="260" y2="12.714285714285708" fill="rgb(0, 0, 0)" stroke="rgb(60, 60, 60)" stroke-width="1px" opacity="0.25"></line><line x1="0" y1="0" x2="260" y2="0" fill="rgb(0, 0, 0)" stroke="rgb(60, 60, 60)" stroke-width="1px" opacity="0.25"></line></g></g></g><g><g><line x1="0" y1="139.85714285714286" x2="260" y2="139.85714285714286" fill="rgb(0, 0, 0)" stroke="rgb(153, 153, 153)" stroke-width="1.5px"></line></g></g><g><g><line x1="21.666666666666664" y1="0" x2="21.666666666666664" y2="178" fill="rgb(0, 0, 0)" stroke="rgb(153, 153, 153)" stroke-width="1.5px"></line></g></g><g><g><g><g><g><path stroke="rgb(255, 112, 67)" stroke-width="2px" d="M21.71216666666667,143.50786692755563L22.435833333333335,143.07181630887484L23.1595,142.8055238009379L23.883166666666668,142.7158249195991L24.606833333333334,142.8280694820631L25.3305,142.95996683584775L26.054166666666667,143.1587271833066L26.777833333333334,143.2670778114337L27.5015,143.431744498555L28.22516666666667,143.59363187361657L28.948833333333333,143.45973084762056L29.6725,143.417585174217L30.396166666666666,143.30091800991354L31.119833333333332,143.83947455156118L31.8435,144.14905646735247L32.567166666666665,144.7665179278122L33.163,144.9198769295681L33.717666666666666,144.99520136995739L34.252833333333335,144.7597559731402L34.7815,144.7757857863117L35.50516666666667,144.9633365282518L36.228833333333334,145.5146268678144L36.9525,145.34088158295214L37.67616666666667,145.90592207799716L38.39983333333333,146.37540566747626L39.1235,146.7656798617397L39.847166666666666,147.16715350855338L40.57083333333333,147.51247721345587L41.2945,147.81741880198678L42.018166666666666,147.58833054192547L42.74183333333333,147.21726754042808L43.4655,147.0522391707866L44.189166666666665,146.92505418087745L44.91283333333333,147.27748823217252L45.6365,146.88451122373345L46.36016666666667,145.46388307367943L47.08383333333334,145.05366008104906L47.807500000000005,145.3216063123969L48.53116666666667,142.5481230032916L49.25483333333334,137.97201965516447L49.978500000000004,134.84222359248957L50.70216666666667,130.26937139995718L51.42583333333334,128.5087602909554L52.1495,127.26318303918526L52.87316666666667,125.76945826445947L53.596833333333336,126.37564793801296L54.3205,125.1067268744211L55.04416666666667,124.63108625250273L55.767833333333336,121.51219461472229L56.4915,121.89737931057378L57.21516666666667,117.42162577075088L57.938833333333335,116.22566744784729L58.6625,115.98851585920791L59.38616666666667,112.55540628361847L60.10983333333333,112.24559008838156L60.833499999999994,110.61743231719038L61.55716666666666,110.107760135873L62.280833333333334,108.3508560857704L63.0045,103.03301176781075L63.5635,98.04417372442495L64.28716666666666,98.43002288906445L65.01083333333334,96.23928140670088L65.73450000000001,90.30877918509889L66.45816666666667,87.98604348178485L67.18183333333334,82.41410586423358L67.9055,76.84470208346589L68.62916666666668,73.54162841196835L69.35283333333334,69.88936234801353L70.07650000000001,69.78128287526951L70.80016666666667,66.07681846930106L71.52383333333334,62.785310946555505L72.2475,59.23492379875653L72.97116666666668,57.51968102708134L73.69483333333334,55.60305641191155L74.41850000000001,53.60236905994584L74.9645,50.51738884049477L75.68816666666667,49.038948615795526L76.41183333333333,47.155916133806556L77.13550000000001,45.24725059722304L77.85916666666667,44.39408346596836L78.58283333333334,43.08420847350855L79.3065,42.47310924063642L80.03016666666667,41.59643668846496L80.75383333333333,40.59945517360198L81.4775,39.756829174239115L82.20116666666667,38.989309723881455L82.92483333333334,38.63899986047094L83.6485,39.995743139446304L84.37216666666667,39.12904322062863L85.09583333333333,40.30932070176164L85.8195,42.602229103634286L86.54316666666666,41.99811837509181L87.26683333333334,41.44353222675619L87.9905,40.71282731537153L88.71416666666667,39.84072663363375L89.43783333333333,39.645519506794564L90.1615,38.68995578490996L90.88516666666668,38.130762068571194L91.60883333333334,37.330147096713546L92.33250000000001,36.93923698543787L93.05616666666667,36.493237683759L93.77983333333334,36.29365835718749L94.5035,38.052393932977154L95.22716666666668,37.39196153797105L95.95083333333334,36.925050009612214L96.67450000000001,36.95897505296037L97.39816666666667,39.062442762869125L98.12183333333334,41.09088381492733L98.8455,41.79210877552688L99.56916666666667,44.2198891761849L100.29283333333333,42.95115903153002L101.01650000000001,44.37621127198951L101.74016666666667,42.95281609549104L102.46383333333334,42.564410029362406L103.1875,41.2128127439657L103.91116666666667,40.73471363441894L104.63483333333333,40.62994121744221L105.3585,39.154760864394405L106.08216666666667,40.85949329591953L106.80583333333334,44.60502720502812L107.52950000000001,46.53179487227786L108.25316666666667,45.131486138083886L108.97683333333335,44.98931678641095L109.7005,43.677615674779446L110.42416666666668,42.104038885764155L111.14783333333334,41.86720506891139L111.87150000000001,44.03207835113232L112.59516666666667,46.33975448734658L113.31883333333334,45.929410073440174L114.04249999999999,48.90153449408774L114.76616666666666,53.15091468699216L115.48983333333332,51.65374476542002L116.2135,50.53333354157301L116.93716666666666,48.87190328307052L117.66083333333333,48.62625586482081L118.38449999999999,46.90844775802999L119.10816666666666,45.81108913789932L119.83183333333332,45.23391136699798L120.5555,44.551375741363245L121.27916666666665,43.474813951320016L122.00283333333333,43.13927780244525L122.72649999999999,43.3391186230003L123.45016666666666,42.56733671036129L124.17383333333333,42.8050363629694L124.8975,42.888361333112805L125.62116666666667,45.853399083297234L126.34483333333333,45.204114472966836L127.0685,44.09546780063945L127.79216666666666,42.95542378557974L128.51583333333335,42.20044669848212L129.2395,41.793416574608486L129.96316666666667,41.40397265751719L130.68683333333334,41.59590541057038L131.4105,40.613615091696815L132.1341666666667,40.249683310363864L132.85783333333333,45.44889511046362L133.5815,44.53150905323272L134.30516666666668,46.639299085452876L135.02883333333335,45.421716559320224L135.7525,44.052336481441394L136.47616666666667,43.629640962111765L137.19983333333334,47.968793113809596L137.92350000000002,53.22833313565571L138.64716666666666,51.908497653246506L139.37083333333334,52.43780535610475L140.0945,51.36235416507513L140.81816666666668,51.427785707371655L141.54183333333336,49.89936098706639L142.2655,52.5643646959418L142.98916666666668,53.63589979307884L143.71283333333335,52.245880271117365L144.43650000000002,51.028093366330666L145.16016666666667,50.543536456505606L145.88383333333334,48.96433526815083L146.60750000000002,48.04147221043323L147.3311666666667,46.81765976511703L148.05483333333333,45.25540166714324L148.48816666666667,50.84005643877124L149.14683333333335,57.67148088611299L149.8705,61.62207968583572L150.59416666666667,59.229043588473374L151.31783333333334,57.453283290405885L152.0415,56.48853414603962L152.76516666666666,54.0672887544437L153.48883333333333,56.62441434071222L154.2125,54.99351428344733L154.93616666666668,53.32673776677104L155.65983333333332,52.47043231768422L156.3835,51.80966955841186L157.10716666666667,49.975526460117884L157.83083333333335,48.73688440406589L158.5545,50.11857642421063L159.27816666666666,51.56039212376005L160.00183333333334,49.68418775647979L160.7255,47.979757530343946L161.44916666666666,46.46358305392974L162.17283333333333,46.16083495157806L162.8965,45.401607988264566L163.62016666666668,45.85139226686936L164.34383333333335,44.895244956709305L165.0675,44.453527964594386L165.79116666666667,45.23768023450103L166.51483333333334,43.86094004237412L167.23850000000002,46.934565173208966L167.63933333333335,52.98683644815204L168.363,53.51876250986999L169.08666666666667,51.859765443591016L169.81033333333335,50.70851118020201L170.53400000000002,52.11993045702907L171.25766666666667,50.77788149407361L171.98133333333334,52.970501234381594L172.705,51.74737706633587L173.4286666666667,55.853245740356286L174.15233333333333,53.107166126117406L174.876,54.9359687049683L175.59966666666668,53.09325755897946L176.32333333333335,55.20425481009606L177.04700000000003,53.76136920232931L177.77066666666667,52.21027904359755L178.49433333333334,50.16900599571728L179.21800000000002,48.96059502879501L179.9416666666667,49.07307245219286L180.66533333333334,48.110306388205196L181.389,46.952249739623646L182.11266666666668,45.62421367812192L182.83633333333336,45.20377740899312L183.56,44.80020684929937L184.28366666666668,43.75088287191998L185.00733333333335,44.115443458205476L185.73100000000002,43.849810864260355L186.45466666666667,43.04624555801639L187.17833333333334,42.28937310354963L187.90200000000002,42.23545366777496L188.6256666666667,42.64147042607522L189.34933333333333,44.93394643038319L190.073,48.67879781575955L190.79666666666668,47.39203659931586L191.52033333333335,47.958394018144354L192.244,46.4935896068961L192.96766666666667,45.69962593602801L193.69133333333335,48.29090949723468L194.41500000000002,46.37193416551957L195.1386666666667,45.78293238191513L195.8623333333333,45.03483478755218L196.586,44.881880492320036L197.30966666666666,44.27362388316556L198.03333333333336,43.761303888122114L198.75699999999998,42.60875166790128L199.48066666666665,41.66695459994945L200.20433333333332,44.67681846613732L200.928,44.158208196321574L201.65166666666664,42.98476071129813L202.37533333333332,41.859374274651906L203.099,41.05424953900957L203.82266666666666,46.47006263530857L204.5463333333333,45.2445231163345L205.26999999999998,44.169819540399516L205.99366666666666,43.691597430457605L206.71733333333333,47.332055498347486L207.44099999999997,45.80960829288858L208.16466666666665,44.432867076809664L208.88833333333332,46.341310497827635L209.612,52.65914674192625L210.33566666666667,55.21751378857841L211.0593333333333,60.99607835603139L211.783,58.89111765874992L212.50666666666666,63.92877994290938L213.23033333333333,60.79886537983883L213.95399999999998,57.66923789249514L214.67766666666665,55.54375180378878L215.40133333333333,54.131059850948404L216.125,52.939641487923446L216.84866666666665,51.01346223380124L217.57233333333332,49.23682800295687L218.296,48.85268996758854L219.01966666666667,48.44192142423361L219.7433333333333,47.56903378620461L220.46699999999998,50.40090217969684L221.19066666666666,49.17855250999703L221.91433333333333,47.817659922920114L222.63799999999998,46.37212281246386L223.36166666666665,45.12411508618381L224.08533333333332,45.16947080691813L224.809,44.6359356699344L225.53266666666664,47.918606036395516L226.25633333333332,46.84258079478155L226.98,45.61843129684627L227.70366666666666,46.73798194855122L228.42733333333334,45.230331127440415L229.15099999999998,44.91937387267626L229.87466666666666,44.72435288468316L230.59833333333333,45.22157832793922L231.322,44.867749867006296L232.04566666666665,44.272365008305115L232.76933333333332,43.145776168956154L233.493,43.318386906552696L234.21666666666667,42.092249187228326L234.9403333333333,40.70000991652445L235.664,42.111773520993665L236.38766666666666,41.27031567747407L237.11133333333333,40.86971367515636L237.83499999999998,42.72411855450182" style="fill: none;" fill="none"></path></g></g></g></g><g opacity="0.2"><g><g><g><path stroke="rgb(255, 112, 67)" stroke-width="2px" d="M21.71216666666667,143.50786692755563L22.435833333333335,142.6793707520621L23.1595,142.35016361236572L23.883166666666668,142.49704934801372L24.606833333333334,143.1754776273455L25.3305,143.44608640398297L26.054166666666667,143.99690573011128L26.777833333333334,143.7758195386614L27.5015,144.27579219818114L28.22516666666667,144.4861518750872L28.948833333333333,142.6748172215053L29.6725,143.1573059436253L30.396166666666666,142.54746580941335L31.119833333333332,147.45443880353653L31.8435,146.29789199829102L32.567166666666665,149.17950251988003L33.163,146.04434835161481L33.717666666666666,145.56006338936942L34.252833333333335,142.95879922049386L34.7815,144.90056559426444L35.50516666666667,146.44607707977295L36.228833333333334,149.93334523882186L36.9525,143.93116339002336L37.67616666666667,150.54057382856095L38.39983333333333,150.26371664864675L39.1235,150.0259882572719L39.847166666666666,150.5469604601179L40.57083333333333,150.43966621398926L41.2945,150.4182616860526L42.018166666666666,145.62364936828615L42.74183333333333,144.01926864079067L43.4655,145.62364936828615L44.189166666666665,145.81969344547818L44.91283333333333,150.35137277875626L45.6365,143.44608640398297L46.36016666666667,132.99827450888498L47.08383333333334,141.44482815470016L47.807500000000005,147.68422755650113L48.53116666666667,118.04226802280971L49.25483333333334,97.46347800118583L49.978500000000004,107.09040937151228L50.70216666666667,89.66118709019254L51.42583333333334,112.8529707990374L52.1495,116.17378058297292L52.87316666666667,112.45630704607282L53.596833333333336,131.7837377875192L54.3205,113.77614558628628L55.04416666666667,120.38058417184013L55.767833333333336,93.6207706124442L56.4915,125.34419001988002L57.21516666666667,77.3474471609933L57.938833333333335,105.51196851457868L58.6625,113.8630615888323L59.38616666666667,81.77350699288503L60.10983333333333,109.46667282104492L60.833499999999994,96.0086064365932L61.55716666666666,105.53327410016742L62.280833333333334,92.57769709995814L63.0045,55.278593139648436L63.5635,53.234281267438625L64.28716666666666,101.89642499651227L65.01083333333334,76.55449602399554L65.73450000000001,37.01194998604911L66.45816666666667,67.10880763462612L67.18183333333334,32.325792061941975L67.9055,26.773256138392863L68.62916666666668,43.842355433872775L69.35283333333334,37.04722002301898L70.07650000000001,68.80932006835937L70.80016666666667,32.75985020228794L71.52383333333334,33.18030473981585L72.2475,27.299458705357146L72.97116666666668,42.09033089773995L73.69483333333334,38.361314086914064L74.41850000000001,35.60358520507812L74.9645,22.762839529854915L75.68816666666667,35.737417340959816L76.41183333333333,30.21370274135044L77.13550000000001,28.073894042968746L77.85916666666667,36.71744323730469L78.58283333333334,31.297909109933045L79.3065,36.97429757254465L80.03016666666667,33.70777997698104L80.75383333333333,31.62805062430245L81.4775,32.1742822265625L82.20116666666667,32.08252580915179L82.92483333333334,35.486577148437505L83.6485,52.20515668596541L84.37216666666667,31.32947753906249L85.09583333333333,50.93091892787389L85.8195,63.23683271135604L86.54316666666666,36.56149457659041L87.26683333333334,36.45256487165179L87.9905,34.136848318917416L88.71416666666667,31.99221278599331L89.43783333333333,37.88873439243861L90.1615,30.090230451311378L90.88516666666668,33.09820199148995L91.60883333333334,30.1248486328125L92.33250000000001,33.42114981515066L93.05616666666667,32.479350585937496L93.77983333333334,34.49748735700335L94.5035,53.88067356654577L95.22716666666668,31.448185076032363L95.95083333333334,32.7229194859096L96.67450000000001,37.26429565429687L97.39816666666667,57.99338492257254L98.12183333333334,59.34662135532923L98.8455,48.10306126185825L99.56916666666667,66.0696879359654L100.29283333333333,31.532693481445303L101.01650000000001,57.20157453264508L101.74016666666667,30.142355608258928L102.46383333333334,39.068779035295755L103.1875,29.048511090959813L103.91116666666667,36.43184517996652L104.63483333333333,39.686994105747765L105.3585,25.8781964983259L106.08216666666667,56.20202401297433L106.80583333333334,78.31471143450055L107.52950000000001,63.872647879464274L108.25316666666667,32.528744158063624L108.97683333333335,43.709795968191976L109.7005,31.87233346121652L110.42416666666668,27.941877790178577L111.14783333333334,39.73570478166854L111.87150000000001,63.51590445382256L112.59516666666667,67.10880763462612L113.31883333333334,42.23631548200335L114.04249999999999,75.65062081473214L114.76616666666666,91.39529336111885L115.48983333333332,38.17922912597656L116.2135,40.44964172363281L116.93716666666666,33.919043230329244L117.66083333333333,46.41543073381696L118.38449999999999,31.448185076032363L119.10816666666666,35.93486746651785L119.83183333333332,40.039314226422995L120.5555,38.40855808803013L121.27916666666665,33.78576206752233L122.00283333333333,40.119453648158476L122.72649999999999,45.13768537248883L123.45016666666666,35.62130170549665L124.17383333333333,44.94433262416295L124.8975,43.638285871233265L125.62116666666667,72.53873264857701L126.34483333333333,39.360554199218754L127.0685,34.117649623325896L127.79216666666666,32.695029384068086L128.51583333333335,35.40565394810267L129.2395,38.13014596121652L129.96316666666667,37.89897783551898L130.68683333333334,43.323299996512276L131.4105,31.773003104073666L132.1341666666667,36.97429757254465L132.85783333333333,92.24179752894808L133.5815,36.27503513881139L134.30516666666668,65.60940813337054L135.02883333333335,34.463474469866064L135.7525,31.727916434151794L136.47616666666667,39.825381469726565L137.19983333333334,87.0211608014788L137.92350000000002,100.56419150216237L138.64716666666666,40.02997872488838L139.37083333333334,57.20157453264508L140.0945,41.683293718610486L140.81816666666668,52.01666957310268L141.54183333333336,36.143538818359374L142.2655,76.54939758300782L142.98916666666668,63.27971548897879L143.71283333333335,39.73570478166854L144.43650000000002,40.0680113874163L145.16016666666667,46.18252432686942L145.88383333333334,34.7515247453962L146.60750000000002,39.73570478166854L147.3311666666667,35.803347865513395L148.05483333333333,31.19507890973773L148.48816666666667,101.10194898332868L149.14683333333335,119.15430047171458L149.8705,97.1774686540876L150.59416666666667,37.691718837193086L151.31783333333334,41.471440691266736L152.0415,47.805791887555806L152.76516666666666,32.27608032226563L153.48883333333333,79.63854452950615L154.2125,40.315413818359374L154.93616666666668,38.32574916294642L155.65983333333332,44.763683297293525L156.3835,45.86280473981586L157.10716666666667,33.46823861258371L157.83083333333335,37.589105922154005L158.5545,62.553804582868295L159.27816666666666,64.5367333984375L160.00183333333334,32.79834847586496L160.7255,32.639885515485496L161.44916666666666,32.81801278250558L162.17283333333333,43.43610203334263L162.8965,38.56856532505581L163.62016666666668,49.899450770786835L164.34383333333335,36.2899191720145L165.0675,40.478075038364956L165.79116666666667,52.295050659179694L166.51483333333334,31.470278320312502L167.23850000000002,74.59719133649554L167.63933333333335,107.45727789742607L168.363,58.306097063337056L169.08666666666667,36.928791852678565L169.81033333333335,40.34722281319754L170.53400000000002,64.82270394461494L171.25766666666667,38.699440830775664L171.98133333333334,72.7040788922991L172.705,40.73925955636161L173.4286666666667,92.80606379917688L174.15233333333333,28.392449602399555L174.876,71.39519191196986L175.59966666666668,36.508857247488834L176.32333333333335,74.20323006766182L177.04700000000003,40.77539873395648L177.77066666666667,38.25046761648994L178.49433333333334,31.79754856654575L179.21800000000002,38.08489632742745L179.9416666666667,50.08536926269531L180.66533333333334,39.44541181291852L181.389,36.529739903041296L182.11266666666668,33.671889125279016L182.83633333333336,41.41985098702568L183.56,41.16807181222098L184.28366666666668,34.30696707589285L185.00733333333335,47.39648873465402L185.73100000000002,41.4591175188337L186.45466666666667,35.81415780203682L187.17833333333334,35.477521013532375L187.90200000000002,41.75017874581473L188.6256666666667,46.29562125069754L189.34933333333333,65.56623046875L190.073,82.3824602835519L190.79666666666668,35.811185651506705L191.52033333333335,53.0556107875279L192.244,33.31034990583147L192.96766666666667,38.553952898298L193.69133333333335,71.61246154785157L194.41500000000002,29.10115618024554L195.1386666666667,40.48191632952009L195.8623333333333,38.301956438337044L196.586,43.50529183523995L197.30966666666666,38.79931440080915L198.03333333333336,39.15042393275669L198.75699999999998,32.235781685965414L199.48066666666665,33.19078098842077L200.20433333333332,71.76559326171875L200.928,39.49071576799665L201.65166666666664,32.42373334612165L202.37533333333332,31.730896344866082L203.099,33.80812691824777L203.82266666666666,95.21238050188337L204.5463333333333,34.21466744559152L205.26999999999998,34.49748735700335L205.99366666666666,39.38759844098773L206.71733333333333,80.09617810930524L207.44099999999997,32.1075834437779L208.16466666666665,32.04219613211496L208.88833333333332,63.517301286969875L209.612,109.51967293875558L210.33566666666667,78.24281720842633L211.0593333333333,113.00315946306502L211.783,39.94647138323103L212.50666666666666,109.2677405003139L213.23033333333333,32.62963431222098L213.95399999999998,29.50259050641742L214.67766666666665,36.414377005440855L215.40133333333333,41.41683227539062L216.125,42.21687622070313L216.84866666666665,33.677848946707584L217.57233333333332,33.247119925362725L218.296,45.395447649274544L219.01966666666667,44.745004534040184L219.7433333333333,39.713045043945314L220.46699999999998,75.88771772112165L221.19066666666666,38.1774054827009L221.91433333333333,35.56962663922991L222.63799999999998,33.362288818359374L223.36166666666665,33.89204554966517L224.08533333333332,45.57767229352679L224.809,39.83411943708146L225.53266666666664,77.46263933454242L226.25633333333332,37.158353620256705L226.98,34.601085815429684L227.70366666666666,56.81393781389508L228.42733333333334,31.66147373744419L229.15099999999998,42.12075857979911L229.87466666666666,42.969163992745536L230.59833333333333,49.69660731724331L231.322,41.683293718610486L232.04566666666665,38.91390127999441L232.76933333333332,33.00647661481585L233.493,44.87188354492187L234.21666666666667,31.05700971330916L234.9403333333333,28.16985648018973L235.664,54.81764596121652L236.38766666666666,33.69719508579799L237.11133333333333,37.26429565429687L237.83499999999998,59.413762468610486" style="fill: none;" fill="none"></path></g></g></g></g></g></g><g transform="translate(70, 178)" clip-path="url(#clip_1)"><clipPath id="clip_1"><rect width="260" height="22"></rect></clipPath><g><g><line x1="0" y1="0" x2="0" y2="5" style="visibility: inherit;" fill="rgb(0, 0, 0)" stroke="rgb(204, 204, 204)" stroke-width="1px"></line><line x1="21.666666666666664" y1="0" x2="21.666666666666664" y2="5" style="visibility: inherit;" fill="rgb(0, 0, 0)" stroke="rgb(204, 204, 204)" stroke-width="1px"></line><line x1="43.33333333333333" y1="0" x2="43.33333333333333" y2="5" style="visibility: inherit;" fill="rgb(0, 0, 0)" stroke="rgb(204, 204, 204)" stroke-width="1px"></line><line x1="65" y1="0" x2="65" y2="5" style="visibility: inherit;" fill="rgb(0, 0, 0)" stroke="rgb(204, 204, 204)" stroke-width="1px"></line><line x1="86.66666666666666" y1="0" x2="86.66666666666666" y2="5" style="visibility: inherit;" fill="rgb(0, 0, 0)" stroke="rgb(204, 204, 204)" stroke-width="1px"></line><line x1="108.33333333333334" y1="0" x2="108.33333333333334" y2="5" style="visibility: inherit;" fill="rgb(0, 0, 0)" stroke="rgb(204, 204, 204)" stroke-width="1px"></line><line x1="130" y1="0" x2="130" y2="5" style="visibility: inherit;" fill="rgb(0, 0, 0)" stroke="rgb(204, 204, 204)" stroke-width="1px"></line><line x1="151.66666666666669" y1="0" x2="151.66666666666669" y2="5" style="visibility: inherit;" fill="rgb(0, 0, 0)" stroke="rgb(204, 204, 204)" stroke-width="1px"></line><line x1="173.33333333333331" y1="0" x2="173.33333333333331" y2="5" style="visibility: inherit;" fill="rgb(0, 0, 0)" stroke="rgb(204, 204, 204)" stroke-width="1px"></line><line x1="195" y1="0" x2="195" y2="5" style="visibility: inherit;" fill="rgb(0, 0, 0)" stroke="rgb(204, 204, 204)" stroke-width="1px"></line><line x1="216.66666666666669" y1="0" x2="216.66666666666669" y2="5" style="visibility: inherit;" fill="rgb(0, 0, 0)" stroke="rgb(204, 204, 204)" stroke-width="1px"></line><line x1="238.33333333333331" y1="0" x2="238.33333333333331" y2="5" style="visibility: inherit;" fill="rgb(0, 0, 0)" stroke="rgb(204, 204, 204)" stroke-width="1px"></line><line x1="260" y1="0" x2="260" y2="5" style="visibility: inherit;" fill="rgb(0, 0, 0)" stroke="rgb(204, 204, 204)" stroke-width="1px"></line></g><g transform="translate(0, 8)"><text x="0" y="0" dx="0em" dy="0.95em" style="text-anchor: middle; visibility: hidden; font-family: Roboto, sans-serif; font-size: 12px; font-weight: 200;" fill="rgb(50, 49, 63)" stroke="none" stroke-width="1px">-10k</text><text x="21.666666666666664" y="0" dx="0em" dy="0.95em" style="text-anchor: middle; visibility: inherit; font-family: Roboto, sans-serif; font-size: 12px; font-weight: 200;" fill="rgb(50, 49, 63)" stroke="none" stroke-width="1px">0</text><text x="43.33333333333333" y="0" dx="0em" dy="0.95em" style="text-anchor: middle; visibility: hidden; font-family: Roboto, sans-serif; font-size: 12px; font-weight: 200;" fill="rgb(50, 49, 63)" stroke="none" stroke-width="1px">10k</text><text x="65" y="0" dx="0em" dy="0.95em" style="text-anchor: middle; visibility: inherit; font-family: Roboto, sans-serif; font-size: 12px; font-weight: 200;" fill="rgb(50, 49, 63)" stroke="none" stroke-width="1px">20k</text><text x="86.66666666666666" y="0" dx="0em" dy="0.95em" style="text-anchor: middle; visibility: hidden; font-family: Roboto, sans-serif; font-size: 12px; font-weight: 200;" fill="rgb(50, 49, 63)" stroke="none" stroke-width="1px">30k</text><text x="108.33333333333334" y="0" dx="0em" dy="0.95em" style="text-anchor: middle; visibility: inherit; font-family: Roboto, sans-serif; font-size: 12px; font-weight: 200;" fill="rgb(50, 49, 63)" stroke="none" stroke-width="1px">40k</text><text x="130" y="0" dx="0em" dy="0.95em" style="text-anchor: middle; visibility: hidden; font-family: Roboto, sans-serif; font-size: 12px; font-weight: 200;" fill="rgb(50, 49, 63)" stroke="none" stroke-width="1px">50k</text><text x="151.66666666666669" y="0" dx="0em" dy="0.95em" style="text-anchor: middle; visibility: inherit; font-family: Roboto, sans-serif; font-size: 12px; font-weight: 200;" fill="rgb(50, 49, 63)" stroke="none" stroke-width="1px">60k</text><text x="173.33333333333331" y="0" dx="0em" dy="0.95em" style="text-anchor: middle; visibility: hidden; font-family: Roboto, sans-serif; font-size: 12px; font-weight: 200;" fill="rgb(50, 49, 63)" stroke="none" stroke-width="1px">70k</text><text x="195" y="0" dx="0em" dy="0.95em" style="text-anchor: middle; visibility: inherit; font-family: Roboto, sans-serif; font-size: 12px; font-weight: 200;" fill="rgb(50, 49, 63)" stroke="none" stroke-width="1px">80k</text><text x="216.66666666666669" y="0" dx="0em" dy="0.95em" style="text-anchor: middle; visibility: hidden; font-family: Roboto, sans-serif; font-size: 12px; font-weight: 200;" fill="rgb(50, 49, 63)" stroke="none" stroke-width="1px">90k</text><text x="238.33333333333331" y="0" dx="0em" dy="0.95em" style="text-anchor: middle; visibility: inherit; font-family: Roboto, sans-serif; font-size: 12px; font-weight: 200;" fill="rgb(50, 49, 63)" stroke="none" stroke-width="1px">100k</text><text x="260" y="0" dx="0em" dy="0.95em" style="text-anchor: middle; visibility: hidden; font-family: Roboto, sans-serif; font-size: 12px; font-weight: 200;" fill="rgb(50, 49, 63)" stroke="none" stroke-width="1px">110k</text></g><line x1="0" y1="0" x2="260" y2="0" fill="rgb(0, 0, 0)" stroke="rgb(204, 204, 204)" stroke-width="1px"></line></g></g></g></g></svg>